<?xml version="1.0" encoding="UTF-8"?>
<svg width="16.2849059px" height="20px" viewBox="0 0 16.2849059 20" version="1.1" xmlns="http://www.w3.org/2000/svg" xmlns:xlink="http://www.w3.org/1999/xlink">
    <title>apple</title>
    <g id="Proflie" stroke="none" stroke-width="1" fill="none" fill-rule="evenodd">
        <g id="01登录" transform="translate(-77, -679)" fill="#FFFFFF" fill-rule="nonzero">
            <g id="编组-2" transform="translate(75, 679)">
                <g id="apple" transform="translate(2, 0)">
                    <path d="M15.758997,6.81931404 C14.5854949,5.10073355 12.7552317,4.86403283 12.1026378,4.8365289 C10.5457472,4.67817279 9.063034,5.75332742 8.27375382,5.7533274 C7.48447364,5.7533274 6.26596506,4.85819866 4.97494608,4.88153537 C3.27720192,4.90653898 1.71281028,5.86834397 0.837684411,7.39022948 C-0.926736005,10.4506696 0.385952776,14.984655 2.10453326,17.4666786 C2.94548754,18.6826868 3.94729827,20.0478832 5.26165398,19.9987094 C6.52850284,19.9487023 7.00857188,19.1785915 8.53712503,19.1785915 C10.069012,19.1785915 10.4990739,19.9987094 11.8392666,19.9737058 C13.202796,19.9487022 14.0662535,18.7351944 14.8997067,17.5158524 C15.8648455,16.1056495 16.2615693,14.7421201 16.2849059,14.6721101 C16.2540682,14.6579414 13.6286906,13.6519633 13.6011867,10.6265282 C13.5761831,8.09533088 15.6656502,6.88015612 15.7598304,6.81931404 L15.758997,6.81931404 Z M12.1234741,0 C11.1174961,0.041672651 9.899821,0.670096375 9.17721709,1.513551 C8.53045741,2.26365887 8.0303855,3.45966421 8.18290742,4.60816272 C9.30640232,4.6956753 10.3848908,4.03808073 11.0833245,3.19129229 C11.7809249,2.34783765 12.2518259,1.1718352 12.1234741,0 L12.1234741,0 Z" id="形状"></path>
                </g>
            </g>
        </g>
    </g>
</svg>