<?xml version="1.0" encoding="UTF-8"?>
<svg width="18px" height="18px" viewBox="0 0 18 18" version="1.1" xmlns="http://www.w3.org/2000/svg" xmlns:xlink="http://www.w3.org/1999/xlink">
    <title>编组</title>
    <g id="Proflie" stroke="none" stroke-width="1" fill="none" fill-rule="evenodd">
        <g id="03个人中心-已登录" transform="translate(-21, -402)">
            <g id="编组" transform="translate(21, 402)">
                <g id="订阅，福利，礼物" transform="translate(0, 1)" fill="#FF7300">
                    <path d="M11.8636364,0 C13.4451791,0 14.7272727,1.28209367 14.7272727,2.86363636 C14.7272727,3.00259312 14.7173754,3.13923823 14.6982473,3.27290521 L15.9545455,3.27272727 C17.0842188,3.27272727 18,4.18850847 18,5.31818182 C18,6.44785517 17.0842188,7.36363636 15.9545455,7.36363636 L15.495932,7.36332993 C15.5284586,7.54030375 15.5454545,7.72271252 15.5454545,7.90909091 L15.5454545,13.3636364 C15.5454545,15.0204906 14.2023088,16.3636364 12.5454545,16.3636364 L5.45454545,16.3636364 C3.79769121,16.3636364 2.45454545,15.0204906 2.45454545,13.3636364 L2.45454545,7.90909091 C2.45454545,7.72271252 2.47154141,7.54030375 2.504068,7.36332993 L2.04545455,7.36363636 C0.915781194,7.36363636 1.38345085e-16,6.44785517 0,5.31818182 C-1.38345085e-16,4.18850847 0.915781194,3.27272727 2.04545455,3.27272727 L3.30175272,3.27290521 C3.28262458,3.13923823 3.27272727,3.00259312 3.27272727,2.86363636 C3.27272727,1.28209367 4.55482094,0 6.13636364,0 C7.66142266,0 8.90803993,1.19215088 8.99513879,2.69537598 L9,2.86363636 C9,1.28209367 10.2820937,0 11.8636364,0 Z M11.6594046,7.36343821 L6.34107971,7.36343821 C5.93197779,7.36343821 5.72742683,7.56798917 5.72742683,7.97709109 L5.73356336,8.09368514 C5.77038253,8.42505769 5.97288798,8.59074397 6.34107971,8.59074397 L11.6594046,8.59074397 C12.0685066,8.59074397 12.2730575,8.38619301 12.2730575,7.97709109 L12.266921,7.86049704 C12.2301018,7.52912449 12.0275964,7.36343821 11.6594046,7.36343821 Z" id="形状结合"></path>
                </g>
                <rect id="矩形" x="0" y="0" width="18" height="18"></rect>
            </g>
        </g>
    </g>
</svg>