<?xml version="1.0" encoding="UTF-8"?>
<svg width="19.9897827px" height="20px" viewBox="0 0 19.9897827 20" version="1.1" xmlns="http://www.w3.org/2000/svg" xmlns:xlink="http://www.w3.org/1999/xlink">
    <title>google</title>
    <g id="Proflie" stroke="none" stroke-width="1" fill="none" fill-rule="evenodd">
        <g id="01登录" transform="translate(-75, -601)" fill-rule="nonzero">
            <g id="编组-3" transform="translate(75, 601)">
                <g id="google" transform="translate(0, 0)">
                    <path d="M4.18308365,10 C4.18308365,9.35054973 4.29388226,8.72752067 4.48991055,8.14369726 L1.04833551,5.56976051 C0.356866413,6.94406674 -0.00221379412,8.46154553 0,10 C0,11.5920907 0.376725523,13.0938379 1.04663092,14.4268303 L4.48650138,11.8486321 C4.28592807,11.2529164 4.18345436,10.6285751 4.18308365,10" id="路径" fill="#FBBC05"></path>
                    <path d="M10.2275736,4.09102531 C11.6679554,4.09102531 12.9694128,4.59047133 13.9921691,5.40867639 L16.9675378,2.49978692 C15.1547022,0.95457258 12.8304884,0 10.2275736,0 C6.18598147,0 2.71201913,2.26284838 1.04833551,5.56976051 L4.49161516,8.14369726 C5.28425131,5.78624393 7.5445428,4.09102531 10.2275736,4.09102531" id="路径" fill="#EA4335"></path>
                    <path d="M10.2275736,15.9089747 C7.54369049,15.9089747 5.28339901,14.2137561 4.48991055,11.8563027 L1.04833551,14.4302395 C2.71116684,17.7371516 6.18512916,20 10.2275736,20 C12.7213944,20 15.102712,19.133214 16.890831,17.5078838 L13.6231246,15.034518 C12.7017916,15.6030001 11.5409631,15.9089747 10.2267213,15.9089747" id="路径" fill="#34A853"></path>
                    <path d="M19.9897827,10 C19.9897827,9.40935822 19.89603,8.77269241 19.7571056,8.18205063 L10.2267213,8.18205063 L10.2267213,12.0455127 L15.7121044,12.0455127 C15.438517,13.3631637 14.6919049,14.3756925 13.6239769,15.034518 L16.890831,17.5078838 C18.7684412,15.8015853 19.9897827,13.2600358 19.9897827,10" id="路径" fill="#4285F4"></path>
                </g>
            </g>
        </g>
    </g>
</svg>