<?xml version="1.0" encoding="UTF-8"?>
<svg width="24px" height="22.588468px" viewBox="0 0 24 22.588468" version="1.1" xmlns="http://www.w3.org/2000/svg" xmlns:xlink="http://www.w3.org/1999/xlink">
    <title>home_fill</title>
    <g id="Proflie" stroke="none" stroke-width="1" fill="none" fill-rule="evenodd">
        <g id="03个人中心-已登录" transform="translate(-68, -103)" fill="#FFFFFF" fill-rule="nonzero">
            <g id="home_fill" transform="translate(68, 103)">
                <path d="M23.7590937,8.39820711 L14.4370838,0.861493504 C13.7489726,0.306128195 12.88477,0 11.9988946,0 C11.1157283,0 10.2488166,0.306128195 9.56070545,0.861493504 L0.241404658,8.39820711 C-0.0376325459,8.62306234 -0.080978131,9.0321363 0.143877092,9.3138826 C0.271204748,9.47101034 0.458132584,9.55499242 0.645060419,9.55499242 L1.74766374,9.55499242 L1.74766374,19.0124573 C1.74766374,20.9846814 3.46523255,22.588468 5.57562072,22.588468 L9.04597663,22.588468 C9.60946924,22.588468 10.067307,22.1306303 10.067307,21.5671377 L10.067307,17.3355249 C10.067307,16.270849 10.9342187,15.4039373 11.9988946,15.4039373 C13.0635706,15.4039373 13.9304823,16.270849 13.9304823,17.3355249 L13.9304823,21.5644286 C13.9304823,22.1279212 14.38832,22.5857589 14.9518126,22.5857589 L18.4221685,22.5857589 C20.5325567,22.5857589 22.2501255,20.9819723 22.2501255,19.0097482 L22.2501255,9.55499242 L23.3500197,9.55499242 C23.5396567,9.55499242 23.7265845,9.47101034 23.8539121,9.3138826 C24.0814765,9.03484539 24.0381309,8.62306234 23.7590937,8.39820711 Z" id="路径"></path>
            </g>
        </g>
    </g>
</svg>