<?xml version="1.0" encoding="UTF-8"?>
<svg width="18px" height="18px" viewBox="0 0 18 18" version="1.1" xmlns="http://www.w3.org/2000/svg" xmlns:xlink="http://www.w3.org/1999/xlink">
    <title>编组 2</title>
    <g id="Proflie" stroke="none" stroke-width="1" fill="none" fill-rule="evenodd">
        <g id="03个人中心-已登录" transform="translate(-21, -458)">
            <g id="编组-2" transform="translate(21, 458)">
                <g id="订单-(2)" transform="translate(1, 0)" fill="#FF7300" fill-rule="nonzero">
                    <path d="M4.09090911,1.63636363 C4.09090911,0.732624952 4.82353406,-5.23217833e-16 5.72727274,-5.23217833e-16 L10.6363637,-5.23217833e-16 C11.0703543,-5.23217833e-16 11.4865698,0.172402102 11.7934475,0.479279811 C12.1003252,0.78615752 12.2727273,1.20237301 12.2727273,1.63636363 L14.7272727,1.63636363 C15.1612634,1.63636363 15.5774789,1.80876573 15.8843566,2.11564344 C16.1912343,2.42252115 16.3636364,2.83873664 16.3636364,3.27272726 L16.3636364,16.3636364 C16.3636364,16.797627 16.1912343,17.2138425 15.8843566,17.5207202 C15.5774789,17.8275979 15.1612634,18 14.7272727,18 L1.63636365,18 C1.20237303,18 0.786157531,17.8275979 0.479279818,17.5207202 C0.172402104,17.2138425 3.48811889e-16,16.797627 3.48811889e-16,16.3636364 L3.48811889e-16,3.27272726 C3.48811889e-16,2.83873664 0.172402104,2.42252115 0.479279818,2.11564344 C0.786157531,1.80876573 1.20237303,1.63636363 1.63636365,1.63636363 L4.09090911,1.63636363 Z M3.27272728,7.36363637 C2.82090686,7.36370554 2.45467071,7.72999776 2.45467071,8.18181818 C2.45467071,8.63363861 2.82090686,8.99993083 3.27272728,9 L9.81818183,9 C10.2700022,8.99993083 10.6362384,8.63363861 10.6362384,8.18181818 C10.6362384,7.72999776 10.2700022,7.36370554 9.81818183,7.36363637 L3.27272728,7.36363637 L3.27272728,7.36363637 Z M3.27272728,10.6363636 C2.82085795,10.6363636 2.45454549,11.0026761 2.45454549,11.4545455 C2.45454549,11.9064148 2.82085795,12.2727273 3.27272728,12.2727273 L11.4545455,12.2727273 C11.9064148,12.2727273 12.2727273,11.9064148 12.2727273,11.4545455 C12.2727273,11.0026761 11.9064148,10.6363636 11.4545455,10.6363636 L3.27272728,10.6363636 Z" id="形状"></path>
                </g>
                <rect id="矩形" x="0" y="0" width="18" height="18"></rect>
            </g>
        </g>
    </g>
</svg>