<?xml version="1.0" encoding="UTF-8"?>
<svg width="24px" height="21.9047997px" viewBox="0 0 24 21.9047997" version="1.1" xmlns="http://www.w3.org/2000/svg" xmlns:xlink="http://www.w3.org/1999/xlink">
    <title>list</title>
    <g id="Proflie" stroke="none" stroke-width="1" fill="none" fill-rule="evenodd">
        <g id="03个人中心-已登录" transform="translate(-298, -103)" fill="#FFFFFF">
            <g id="list" transform="translate(298, 103)">
                <path d="M9.87481833,4.9685546 L22.0717998,4.9685546 C23.1375354,4.9685546 24,4.10460234 24,3.03958192 C24,1.9745615 23.1375354,1.11103838 22.0717998,1.11103838 L9.87481833,1.11103838 C8.80956903,1.11103838 7.94604592,1.9745901 7.94604592,3.03958192 C7.94604592,4.10457373 8.80959764,4.9685546 9.87481833,4.9685546 L9.87481833,4.9685546 Z M22.0717998,8.82607081 L9.87481833,8.82607081 C8.80956903,8.82607081 7.94604592,9.68962253 7.94604592,10.7546143 C7.94604592,11.819692 8.80959764,12.683587 9.87481833,12.683587 L22.0717998,12.683587 C23.1375354,12.683587 24,11.819692 24,10.7546143 C24,9.68962253 23.1375068,8.82607081 22.0717998,8.82607081 L22.0717998,8.82607081 Z M22.0717998,16.5407313 L9.87481833,16.5407313 C8.80956903,16.5407313 7.94604592,17.4045977 7.94604592,18.4694751 C7.94604592,19.5347244 8.80959764,20.3984192 9.87481833,20.3984192 L22.0717998,20.3984192 C23.1375354,20.3984192 24,19.5347244 24,18.4694751 C24,17.4045691 23.1375068,16.5407313 22.0717998,16.5407313 L22.0717998,16.5407313 Z" id="形状" fill-rule="nonzero"></path>
                <path d="M4.88621013,2.75332296 L7.32396969,6.58408799 C7.70943027,7.18981175 7.53087168,7.99332542 6.92514791,8.37878599 C6.7165617,8.51152267 6.47444902,8.58202605 6.2272098,8.58202605 L1.35169067,8.58202605 C0.633720525,8.58202605 0.0516907214,7.99999625 0.0516907214,7.2820261 C0.0516907214,7.03478688 0.122194102,6.79267419 0.25493078,6.58408799 L2.69269034,2.75332296 C3.07815092,2.1475992 3.88166459,1.9690406 4.48738835,2.35450118 C4.64791339,2.45665348 4.78405783,2.59279792 4.88621013,2.75332296 Z" id="三角形" transform="translate(3.7895, 4.8059) rotate(-270) translate(-3.7895, -4.8059)"></path>
                <path d="M4.87285136,15.0462534 L7.31061092,18.8770185 C7.6960715,19.4827422 7.5175129,20.2862559 6.91178914,20.6717165 C6.70320293,20.8044532 6.46109025,20.8749565 6.21385103,20.8749565 L1.3383319,20.8749565 C0.620361752,20.8749565 0.0383319485,20.2929267 0.0383319485,19.5749566 C0.0383319485,19.3277174 0.108835329,19.0856047 0.241572007,18.8770185 L2.67933157,15.0462534 C3.06479215,14.4405297 3.86830581,14.2619711 4.47402958,14.6474317 C4.63455461,14.749584 4.77069906,14.8857284 4.87285136,15.0462534 Z" id="三角形" transform="translate(3.7761, 17.0989) rotate(-270) translate(-3.7761, -17.0989)"></path>
            </g>
        </g>
    </g>
</svg>