<?xml version="1.0" encoding="UTF-8"?>
<svg width="18px" height="18px" viewBox="0 0 18 18" version="1.1" xmlns="http://www.w3.org/2000/svg" xmlns:xlink="http://www.w3.org/1999/xlink">
    <title>编组 2</title>
    <g id="Proflie" stroke="none" stroke-width="1" fill="none" fill-rule="evenodd">
        <g id="03个人中心-已登录" transform="translate(-20.5, -516)">
            <g id="编组-2" transform="translate(20.5, 516)">
                <g id="138设置、系统设置、功能设置、属性-(1)" transform="translate(0, 0)" fill="#FF7300" fill-rule="nonzero">
                    <path d="M17.8331408,6.81719546 C17.8291247,6.78105127 17.8251087,6.75093111 17.8190847,6.73285902 L17.8190847,6.71679493 L17.8110526,6.6726187 C17.6684839,5.97784709 17.2086495,5.53006076 16.6363665,5.53006076 L16.54199,5.53006076 C15.566097,5.53006076 14.7749408,4.73488863 14.7749408,3.76301157 C14.7749408,3.5381144 14.8793574,3.21884074 14.9235336,3.10639216 C15.2006391,2.45981279 14.9054615,1.72287296 14.22073,1.34737501 L12.0661348,0.128512668 L12.0259745,0.114456595 C11.8653337,0.0622483238 11.6785887,0 11.4697557,0 C11.0802016,0 10.6424554,0.18072094 10.3713739,0.45180235 C10.0320202,0.787140094 9.34327259,1.28713469 8.93363846,1.28713469 C8.52601234,1.28713469 7.83525675,0.789148104 7.49590299,0.45180235 C7.20674948,0.166664867 6.8071554,0 6.39752127,0 C6.18266416,0 6.00194322,0.0602403133 5.84130238,0.114456595 L5.80515819,0.128512668 L3.54614644,1.35139103 L3.53209037,1.35942307 C2.98390352,1.70279286 2.76101436,2.48993295 3.04012781,3.1144242 L3.04414383,3.12245624 L3.04815985,3.13048828 C3.09233608,3.22888079 3.22888079,3.56221053 3.22888079,3.85337204 C3.22888079,4.82926512 2.43370866,5.62042123 1.4618316,5.62042123 L1.36745511,5.62042123 C0.769068,5.62042123 0.321281671,6.06218353 0.192769003,6.77101122 L0.184736961,6.81117142 L0.184736961,6.8252275 C0.184736961,6.8453076 0.176704919,6.87341975 0.170680888,6.90956394 C0.120480627,7.21277351 0,7.92762523 0,8.51195627 C0,9.09628731 0.118472616,9.81113903 0.170680888,10.1143486 C0.174696909,10.1504928 0.178712929,10.1806129 0.184736961,10.198685 L0.184736961,10.2147491 L0.192769003,10.2589254 C0.335337744,10.953697 0.795172136,11.4014833 1.36745511,11.4014833 L1.41564736,11.4014833 C2.39154044,11.4014833 3.18269655,12.1966554 3.18269655,13.1685325 C3.18269655,13.3934297 3.07828001,13.7127033 3.03410378,13.8251519 C2.76703839,14.4335791 3.02004771,15.2146951 3.61040278,15.6082652 L3.62646686,15.6162972 L5.75495793,16.8010234 L5.79511814,16.8150795 C5.95575898,16.8672877 6.13848793,16.9295361 6.34732101,16.9295361 C6.79309933,16.9295361 7.19470142,16.7588552 7.44570273,16.4777337 C7.46979885,16.4596616 7.49389498,16.4355655 7.52200712,16.4114694 C7.77903246,16.1865722 8.46978805,15.5922011 8.92560642,15.5922011 C9.26496019,15.5922011 9.83322714,15.9476189 10.4055101,16.5199019 C10.6946636,16.8050394 11.0942577,16.9717043 11.5038918,16.9717043 C11.7809973,16.9717043 11.9858143,16.8953999 12.2187435,16.7809433 L12.2267756,16.7769273 L14.4094829,15.570113 L14.417515,15.5620809 C14.9657018,15.2187112 15.188591,14.4315711 14.9094775,13.8070798 L14.9054615,13.7990478 L14.9014455,13.7910157 C14.8974295,13.7890077 14.7267486,13.4335899 14.7588768,13.1143162 L14.7628928,13.0942361 L14.7628928,13.074156 C14.7628928,12.0982629 15.5580649,11.3071068 16.529942,11.3071068 L16.6303425,11.3071068 C17.2287296,11.3071068 17.6765159,10.8653445 17.8050286,10.1565168 L17.8130606,10.1163566 L17.8130606,10.1023005 C17.8170767,10.0862365 17.8210927,10.0621403 17.8271167,10.0300122 C17.879325,9.73483463 17.9999052,9.04608705 17.9999052,8.41557177 C18.0038216,7.83324874 17.885349,7.12040503 17.8331408,6.81719546 L17.8331408,6.81719546 Z M8.9978948,11.2830107 C7.45373477,11.2830107 6.20274426,10.0320202 6.20274426,8.48786015 C6.20274426,6.94370011 7.45373477,5.69270961 8.9978948,5.69270961 C10.5420548,5.69270961 11.7930453,6.94370011 11.7930453,8.48786015 C11.7930453,10.0320202 10.5420548,11.2830107 8.9978948,11.2830107 L8.9978948,11.2830107 Z" id="形状"></path>
                </g>
                <rect id="矩形" x="0" y="0" width="18" height="18"></rect>
            </g>
        </g>
    </g>
</svg>